<?xml version="1.0" standalone="no"?>
<!DOCTYPE svg PUBLIC "-//W3C//DTD SVG 20010904//EN"
 "http://www.w3.org/TR/2001/REC-SVG-20010904/DTD/svg10.dtd">
<svg version="1.0" xmlns="http://www.w3.org/2000/svg"
 width="512.000000pt" height="512.000000pt" viewBox="0 0 512.000000 512.000000"
 preserveAspectRatio="xMidYMid meet">

<g transform="translate(0.000000,512.000000) scale(0.100000,-0.100000)"
fill="#ffffff" stroke="none">
<path d="M2471 4383 c-24 -9 -63 -35 -86 -58 -77 -77 -75 -50 -75 -827 l0
-688 -688 0 c-777 0 -750 2 -827 -75 -98 -98 -98 -252 0 -350 77 -77 50 -75
827 -75 l688 0 0 -688 c0 -777 -2 -750 75 -827 98 -98 252 -98 350 0 77 77 75
50 75 827 l0 688 688 0 c777 0 750 -2 827 75 98 98 98 252 0 350 -77 77 -50
75 -827 75 l-688 0 0 688 c0 777 2 750 -75 827 -69 70 -169 91 -264 58z"/>
</g>
</svg>
