<svg width="41" height="29" viewBox="0 0 41 29" fill="none" xmlns="http://www.w3.org/2000/svg">
<path d="M37.3438 0.0546875H3.65625C2.94555 0.0546875 2.26396 0.302441 1.76142 0.743444C1.25889 1.18445 0.976563 1.78258 0.976562 2.40625V26.5938C0.976562 27.2174 1.25889 27.8156 1.76142 28.2566C2.26396 28.6976 2.94555 28.9453 3.65625 28.9453H37.3438C38.0544 28.9453 38.736 28.6976 39.2386 28.2566C39.7411 27.8156 40.0234 27.2174 40.0234 26.5938V2.40625C40.0234 1.78258 39.7411 1.18445 39.2386 0.743444C38.736 0.302441 38.0544 0.0546875 37.3438 0.0546875ZM3.65625 2.07031H37.3438C37.4453 2.07031 37.5426 2.10571 37.6144 2.16871C37.6862 2.23171 37.7266 2.31715 37.7266 2.40625V20.4746L32.0858 15.5246C31.837 15.3062 31.5416 15.133 31.2164 15.0148C30.8913 14.8966 30.5428 14.8358 30.1909 14.8358C29.839 14.8358 29.4905 14.8966 29.1654 15.0148C28.8402 15.133 28.5448 15.3062 28.296 15.5246L24.1961 19.1225L15.5043 11.4934C15.2555 11.275 14.96 11.1017 14.6349 10.9835C14.3098 10.8654 13.9613 10.8045 13.6094 10.8045C13.2575 10.8045 12.909 10.8654 12.5838 10.9835C12.2587 11.1017 11.9633 11.275 11.7145 11.4934L3.27344 18.9008V2.40625C3.27344 2.31715 3.31377 2.23171 3.38556 2.16871C3.45735 2.10571 3.55472 2.07031 3.65625 2.07031ZM3.27344 26.5938V21.7512L13.3376 12.9194C13.3732 12.8879 13.4155 12.8629 13.4622 12.8459C13.5088 12.8288 13.5588 12.82 13.6094 12.82C13.6599 12.82 13.7099 12.8288 13.7566 12.8459C13.8032 12.8629 13.8456 12.8879 13.8812 12.9194L29.8464 26.9297H3.65625C3.55472 26.9297 3.45735 26.8943 3.38556 26.8313C3.31377 26.7683 3.27344 26.6828 3.27344 26.5938ZM37.3438 26.9297H33.0945L25.8211 20.5469L29.9191 16.949C29.9547 16.9178 29.9969 16.893 30.0433 16.8761C30.0898 16.8592 30.1396 16.8505 30.1899 16.8505C30.2402 16.8505 30.2901 16.8592 30.3365 16.8761C30.383 16.893 30.4252 16.9178 30.4608 16.949L37.7342 23.3318V26.5938C37.7342 26.6384 37.7241 26.6827 37.7044 26.7239C37.6846 26.7651 37.6558 26.8024 37.6194 26.8337C37.583 26.865 37.5399 26.8896 37.4926 26.9061C37.4453 26.9226 37.3947 26.9306 37.3438 26.9297ZM23.9453 9.79688C23.9453 9.46466 24.0576 9.13991 24.2679 8.86369C24.4782 8.58747 24.7771 8.37218 25.1269 8.24505C25.4766 8.11792 25.8615 8.08465 26.2328 8.14946C26.6041 8.21427 26.9451 8.37425 27.2128 8.60916C27.4805 8.84406 27.6628 9.14336 27.7367 9.46918C27.8105 9.79501 27.7726 10.1327 27.6277 10.4397C27.4829 10.7466 27.2375 11.0089 26.9228 11.1935C26.608 11.3781 26.2379 11.4766 25.8594 11.4766C25.3517 11.4766 24.8649 11.2996 24.5059 10.9846C24.147 10.6696 23.9453 10.2424 23.9453 9.79688Z" fill="black"/>
</svg>
