<svg width="24" height="24" viewBox="0 0 24 24" fill="none" xmlns="http://www.w3.org/2000/svg">
<g clip-path="url(#clip0_772_123)">
<path d="M8.75 22.425C7.98333 22.425 7.29583 22.225 6.6875 21.825C6.07917 21.425 5.60833 20.875 5.275 20.175C5.00833 20.525 4.67083 20.7958 4.2625 20.9875C3.85417 21.1792 3.43333 21.275 3 21.275C2.15 21.275 1.4375 20.9833 0.8625 20.4C0.2875 19.8167 0 19.1083 0 18.275C0 17.5583 0.233333 16.9125 0.7 16.3375C1.16667 15.7625 1.75833 15.4333 2.475 15.35C2.24167 15.0167 2.0625 14.6625 1.9375 14.2875C1.8125 13.9125 1.75 13.5167 1.75 13.1C1.75 12.4333 1.92083 11.8083 2.2625 11.225C2.60417 10.6417 3.08333 10.1667 3.7 9.8C3.78333 10.1 3.89583 10.4208 4.0375 10.7625C4.17917 11.1042 4.34167 11.4 4.525 11.65C4.29167 11.8333 4.10833 12.0542 3.975 12.3125C3.84167 12.5708 3.775 12.8417 3.775 13.125C3.775 14.0583 4.15833 14.6333 4.925 14.85C5.69167 15.0667 6.41667 15.2417 7.1 15.375L7.575 16.175C7.39167 16.7083 7.23333 17.1625 7.1 17.5375C6.96667 17.9125 6.9 18.25 6.9 18.55C6.9 19.05 7.07917 19.4875 7.4375 19.8625C7.79583 20.2375 8.23333 20.425 8.75 20.425C9.38333 20.425 9.90833 20.1417 10.325 19.575C10.7417 19.0083 11.0833 18.3417 11.35 17.575C11.6167 16.8083 11.8208 16.0333 11.9625 15.25C12.1042 14.4667 12.2167 13.8667 12.3 13.45L14.25 13.975C14.1 14.725 13.9167 15.5833 13.7 16.55C13.4833 17.5167 13.1792 18.4375 12.7875 19.3125C12.3958 20.1875 11.8792 20.925 11.2375 21.525C10.5958 22.125 9.76667 22.425 8.75 22.425ZM3 19.275C3.28333 19.275 3.52083 19.1792 3.7125 18.9875C3.90417 18.7958 4 18.5583 4 18.275C4 17.9917 3.90417 17.7542 3.7125 17.5625C3.52083 17.3708 3.28333 17.275 3 17.275C2.71667 17.275 2.47917 17.3708 2.2875 17.5625C2.09583 17.7542 2 17.9917 2 18.275C2 18.5583 2.09583 18.7958 2.2875 18.9875C2.47917 19.1792 2.71667 19.275 3 19.275ZM10.1 15.325C9.33333 14.6417 8.6375 14.0042 8.0125 13.4125C7.3875 12.8208 6.85 12.2458 6.4 11.6875C5.95 11.1292 5.60417 10.5708 5.3625 10.0125C5.12083 9.45417 5 8.875 5 8.275C5 7.19167 5.37083 6.27917 6.1125 5.5375C6.85417 4.79584 7.76667 4.425 8.85 4.425C8.91667 4.425 8.975 4.42917 9.025 4.4375C9.075 4.44584 9.13333 4.45 9.2 4.45C9.13333 4.28334 9.08333 4.11667 9.05 3.95C9.01667 3.78334 9 3.60834 9 3.425C9 2.59167 9.29167 1.88334 9.875 1.3C10.4583 0.71667 11.1667 0.425003 12 0.425003C12.8333 0.425003 13.5417 0.71667 14.125 1.3C14.7083 1.88334 15 2.59167 15 3.425C15 3.60834 14.9833 3.77917 14.95 3.9375C14.9167 4.09584 14.8667 4.25834 14.8 4.425H15.15C16.15 4.425 17 4.74584 17.7 5.3875C18.4 6.02917 18.8167 6.825 18.95 7.775C18.65 7.725 18.3125 7.7 17.9375 7.7C17.5625 7.7 17.2167 7.71667 16.9 7.75C16.7833 7.36667 16.5708 7.05 16.2625 6.8C15.9542 6.55 15.5833 6.425 15.15 6.425C14.5667 6.425 14.1125 6.59584 13.7875 6.9375C13.4625 7.27917 13.0167 7.775 12.45 8.425H11.525C10.9417 7.74167 10.4875 7.2375 10.1625 6.9125C9.8375 6.5875 9.4 6.425 8.85 6.425C8.31667 6.425 7.875 6.6 7.525 6.95C7.175 7.3 7 7.74167 7 8.275C7 8.65834 7.10833 9.05417 7.325 9.4625C7.54167 9.87084 7.84583 10.3042 8.2375 10.7625C8.62917 11.2208 9.10417 11.7083 9.6625 12.225C10.2208 12.7417 10.8417 13.3 11.525 13.9L10.1 15.325ZM12 4.425C12.2833 4.425 12.5208 4.32917 12.7125 4.1375C12.9042 3.94584 13 3.70834 13 3.425C13 3.14167 12.9042 2.90417 12.7125 2.7125C12.5208 2.52084 12.2833 2.425 12 2.425C11.7167 2.425 11.4792 2.52084 11.2875 2.7125C11.0958 2.90417 11 3.14167 11 3.425C11 3.70834 11.0958 3.94584 11.2875 4.1375C11.4792 4.32917 11.7167 4.425 12 4.425ZM15.225 22.425C14.8583 22.425 14.4958 22.375 14.1375 22.275C13.7792 22.175 13.4333 22.0167 13.1 21.8C13.2833 21.5667 13.4667 21.2917 13.65 20.975C13.8333 20.6583 14 20.3667 14.15 20.1C14.3333 20.2167 14.5167 20.3 14.7 20.35C14.8833 20.4 15.0667 20.425 15.25 20.425C15.7833 20.425 16.2292 20.2375 16.5875 19.8625C16.9458 19.4875 17.125 19.0417 17.125 18.525C17.125 18.2083 17.0583 17.8667 16.925 17.5C16.7917 17.1333 16.6333 16.6833 16.45 16.15L16.925 15.35C17.625 15.2167 18.3542 15.0417 19.1125 14.825C19.8708 14.6083 20.25 14.0333 20.25 13.1C20.25 12.4333 20.0042 11.95 19.5125 11.65C19.0208 11.35 18.4833 11.2 17.9 11.2C17.2 11.2 16.3833 11.3333 15.45 11.6C14.5167 11.8667 13.425 12.2083 12.175 12.625L11.65 10.675C12.95 10.2583 14.1083 9.90834 15.125 9.625C16.1417 9.34167 17.075 9.2 17.925 9.2C19.075 9.2 20.0833 9.54167 20.95 10.225C21.8167 10.9083 22.25 11.8667 22.25 13.1C22.25 13.5167 22.1875 13.9125 22.0625 14.2875C21.9375 14.6625 21.7583 15.0167 21.525 15.35C22.2417 15.4333 22.8333 15.7625 23.3 16.3375C23.7667 16.9125 24 17.5583 24 18.275C24 19.1083 23.7125 19.8167 23.1375 20.4C22.5625 20.9833 21.85 21.275 21 21.275C20.5667 21.275 20.1458 21.1792 19.7375 20.9875C19.3292 20.7958 18.9917 20.525 18.725 20.175C18.3917 20.875 17.9208 21.425 17.3125 21.825C16.7042 22.225 16.0083 22.425 15.225 22.425ZM21.025 19.275C21.3083 19.275 21.5417 19.1792 21.725 18.9875C21.9083 18.7958 22 18.5583 22 18.275C22 17.9917 21.9042 17.75 21.7125 17.55C21.5208 17.35 21.2833 17.25 21 17.25C20.7167 17.25 20.4792 17.3458 20.2875 17.5375C20.0958 17.7292 20 17.9667 20 18.25C20 18.5333 20.1 18.775 20.3 18.975C20.5 19.175 20.7417 19.275 21.025 19.275Z" fill="black"/>
</g>
<defs>
<clipPath id="clip0_772_123">
<rect width="24" height="24" fill="white"/>
</clipPath>
</defs>
</svg>
