<svg width="24" height="24" viewBox="0 0 24 24" fill="none" xmlns="http://www.w3.org/2000/svg">
<mask id="mask0_468_111" style="mask-type:alpha" maskUnits="userSpaceOnUse" x="0" y="0" width="24" height="24">
<rect width="24" height="24" fill="#D9D9D9"/>
</mask>
<g mask="url(#mask0_468_111)">
<path d="M14 13C14.8333 13 15.5417 12.7083 16.125 12.125C16.7083 11.5417 17 10.8333 17 10C17 9.16667 16.7083 8.45833 16.125 7.875C15.5417 7.29167 14.8333 7 14 7C13.1667 7 12.4583 7.29167 11.875 7.875C11.2917 8.45833 11 9.16667 11 10C11 10.8333 11.2917 11.5417 11.875 12.125C12.4583 12.7083 13.1667 13 14 13ZM8 17.75C8.73333 16.9 9.61667 16.2292 10.65 15.7375C11.6833 15.2458 12.8 15 14 15C15.2 15 16.3167 15.2458 17.35 15.7375C18.3833 16.2292 19.2667 16.9 20 17.75V6H8V17.75ZM8 20C7.45 20 6.97917 19.8042 6.5875 19.4125C6.19583 19.0208 6 18.55 6 18V6C6 5.45 6.19583 4.97917 6.5875 4.5875C6.97917 4.19583 7.45 4 8 4H20C20.55 4 21.0208 4.19583 21.4125 4.5875C21.8042 4.97917 22 5.45 22 6V18C22 18.55 21.8042 19.0208 21.4125 19.4125C21.0208 19.8042 20.55 20 20 20H8ZM4 24C3.45 24 2.97917 23.8042 2.5875 23.4125C2.19583 23.0208 2 22.55 2 22V9C2 8.71667 2.09583 8.47917 2.2875 8.2875C2.47917 8.09583 2.71667 8 3 8C3.28333 8 3.52083 8.09583 3.7125 8.2875C3.90417 8.47917 4 8.71667 4 9V22H17C17.2833 22 17.5208 22.0958 17.7125 22.2875C17.9042 22.4792 18 22.7167 18 23C18 23.2833 17.9042 23.5208 17.7125 23.7125C17.5208 23.9042 17.2833 24 17 24H4ZM14 11C13.7167 11 13.4792 10.9042 13.2875 10.7125C13.0958 10.5208 13 10.2833 13 10C13 9.71667 13.0958 9.47917 13.2875 9.2875C13.4792 9.09583 13.7167 9 14 9C14.2833 9 14.5208 9.09583 14.7125 9.2875C14.9042 9.47917 15 9.71667 15 10C15 10.2833 14.9042 10.5208 14.7125 10.7125C14.5208 10.9042 14.2833 11 14 11ZM10.7 18H17.3C16.8167 17.6667 16.2958 17.4167 15.7375 17.25C15.1792 17.0833 14.6 17 14 17C13.4 17 12.8208 17.0833 12.2625 17.25C11.7042 17.4167 11.1833 17.6667 10.7 18Z" fill="#1C1B1F"/>
</g>
</svg>
