<?xml version="1.0" encoding="UTF-8"?>
<svg id="Layer_1" data-name="Layer 1" xmlns="http://www.w3.org/2000/svg" viewBox="0 0 1547 259">
  <defs>
    <style>
      .cls-1 {
        fill: #79cccc;
      }

      .cls-1, .cls-2, .cls-3, .cls-4, .cls-5, .cls-6, .cls-7, .cls-8, .cls-9, .cls-10, .cls-11, .cls-12, .cls-13, .cls-14, .cls-15, .cls-16 {
        stroke-width: 0px;
      }

      .cls-2 {
        fill: #6ec8c7;
      }

      .cls-3 {
        fill: #52acd2;
      }

      .cls-4 {
        fill: #3386bd;
      }

      .cls-5 {
        fill: #1076b4;
      }

      .cls-6 {
        fill: #c8e7e8;
      }

      .cls-7 {
        fill: #cadfa2;
      }

      .cls-8 {
        fill: #dbe8bf;
      }

      .cls-9 {
        fill: #a6cd65;
      }

      .cls-10 {
        fill: #add171;
      }

      .cls-11 {
        fill: #fdfdfd;
      }

      .cls-12 {
        fill: #e5202e;
      }

      .cls-13 {
        fill: #eb5930;
      }

      .cls-14 {
        fill: #e74a55;
      }

      .cls-15 {
        fill: #ea4d58;
      }

      .cls-16 {
        fill: #ea525d;
      }

      .letter {
        transition: 0.5s all;
      }
      
      .letter:hover {
        transform: translateY(-20px);
      }

    </style>
  </defs>
  <path class="cls-11" d="m773.5,258.95c-257.07,0-514.14,0-771.2.05-1.87,0-2.3-.42-2.3-2.29.05-84.81.05-169.61,0-254.42C0,.42.42,0,2.3,0c514.14.05,1028.27.05,1542.41,0,1.87,0,2.3.42,2.3,2.29-.05,84.81-.05,169.61,0,254.42,0,1.87-.42,2.29-2.3,2.29-257.07-.05-514.14-.05-771.2-.05Z"/>
  
  <g class="a-1 letter">
    <path class="cls-13" d="m454.83,234.31c-1,.05-1.99.14-2.99.14-68.96,0-137.92,0-206.89,0q-3.04,0-1.64-2.8c30.46-60.8,60.92-121.6,91.37-182.4,4.5-8.98,8.95-17.99,13.42-26.98,1.16.25,1.26,1.21,1.6,1.9,34.89,69.64,69.76,139.3,104.63,208.95.07.15.13.3.2.46.26.18.37.42.29.74Z"/>
  </g>
  <g class="a-2 letter">
    <path class="cls-13" d="m668.75,233.51c8.51-16.92,17.04-33.84,25.53-50.78,26.39-52.67,52.77-105.34,79.17-158,.44-.87.67-1.89,1.68-2.63,35.4,70.67,70.77,141.28,106.35,212.33h-212.64c-.34-.28-.36-.59-.09-.92Z"/>
  </g>
  <g class="n letter">
    <rect
     style="fill:#e5202e;fill-opacity:1;stroke:#000000;stroke-width:0;stroke-dasharray:none;stroke-opacity:1"
     id="rect32"
     width="211.42493"
     height="212.13203"
     x="881.7536"
     y="22.352272" />
    <path
     id="rect32-7"
     style="fill:#ea4d58;stroke:#000000;stroke-width:0;fill-opacity:1"
     d="M 881.75403,22.352001 H 1093.179 V 234.48404 Z"
      />
  </g>
  
  <g class="b letter">
    
    <path class="cls-7" d="m29.04,87.34c46.12,0,92.23-.09,138.35.07,18.11.06,34.47,5.69,48.31,17.52,7.09,6.06,13.26,13.04,17.39,21.57.21.44.55.81.83,1.21-1.71,5.03-4.89,9.22-8.1,13.3-5.16,6.57-11.37,12.08-18.46,16.52-9.26,5.8-19.3,9.43-30.22,10.72-3.08.36-6.13.39-9.19.4-45.23.02-90.46.02-135.7.02q-3.22,0-3.22-3.25c0-26.02,0-52.05,0-78.07Z"/>
    <path class="cls-7" d="m29.07,22.05c0,21.77-.02,43.53-.03,65.3-.15,0-.29,0-.43-.03-.02-21.16-.04-42.32-.04-63.48,0-.63-.23-1.36.51-1.79Z"/>
    <path class="cls-8" d="m234.46,127.26c-.41,2.62,1.4,4.55,2.21,6.76,7.76,21.06,6.81,41.66-3.54,61.6-7.17,13.81-18.02,24.19-31.89,31.17-10.12,5.1-20.94,7.74-32.39,7.73-45.56-.06-91.12-.03-136.69-.03q-3.59,0-3.6-3.52c0-46.97-.01-93.94-.02-140.92,0-.91.04-1.83.06-2.74.15-.01.31-.02.46-.04.23.22.39.47.49.77.36,1.39.23,2.81.23,4.22,0,23.52,0,47.04,0,70.55,0,.75-.02,1.5,0,2.24.08,2.54.31,2.76,2.95,2.83.83.02,1.67,0,2.5,0,44.79,0,89.59.05,134.38-.03,16.79-.03,31.6-5.74,44.59-16.29,8.06-6.55,14.42-14.46,19.11-23.71.28-.38.58-.73,1.14-.61Z"/>
    <path class="cls-10" d="m234.46,127.26c-.18.15-.35.3-.53.45-1.38-.05-1.63-1.25-2.14-2.14-8.78-15.26-21.35-26.18-37.76-32.57-6.85-2.67-14.02-3.97-21.4-4.51-7.16-.53-14.3-.37-21.45-.38-39.27-.05-78.55-.02-117.82-.04-1.47,0-3.02.33-4.32-.74h0c-.43-.69-.24-1.46-.24-2.19-.01-20.31-.01-40.62,0-60.94,0-.73-.22-1.5.27-2.17,1.08-.03,2.16-.07,3.24-.07,45.86,0,91.72-.03,137.58.01,17.54.02,32.9,6.18,46.12,17.43,14.6,12.43,23.25,28.39,25.26,47.43,1.4,13.25.09,26.38-6.13,38.57-.3.58-.45,1.23-.68,1.84Z"/>
  </g>

  <g class="l letter">
    <path class="cls-10" d="m454.83,234.31c-.1-.25-.19-.49-.29-.74.7-1.16.39-2.44.39-3.66.03-68.24.03-136.49.04-204.73q0-3.22,3.21-3.22c33.48,0,66.96,0,100.44,0q3.16,0,3.16,3.27c0,45.05,0,90.1,0,135.16,0,1.08.07,2.16.1,3.24.8.98.76,2.16.76,3.32.01,21.23.02,42.45-.02,63.68,0,1.22.4,2.72-1.25,3.4-1.12-1.26-.85-2.82-.85-4.29-.02-20.29,0-40.57-.01-60.86q0-4.39-4.41-4.4c-31.82,0-63.64,0-95.46,0q-4.45,0-4.46,4.34c0,20.12,0,40.24,0,60.36,0,3.95.05,4.01,4.06,4.01,32.07,0,64.14,0,96.21.01,1.48,0,3.01-.23,4.43.45.33.17.46.44.39.81-34.83,0-69.66.01-104.48,0-.66,0-1.32-.11-1.98-.17Z"/>
    <path class="cls-9" d="m561.35,234.03c-34.22,0-68.44-.01-102.66-.02q-3.31,0-3.31-3.4c0-21.36.03-42.71-.05-64.07,0-2.29.61-2.92,2.91-2.91,33.39.07,66.77.08,100.16,0,2.49,0,2.98.79,2.97,3.11-.08,22.44-.04,44.87-.03,67.31,0,0,0,0,0,0Z"/>
    <path class="cls-8" d="m561.35,234.03c.83-.84.45-1.89.46-2.85.04-22.52.06-45.04.08-67.55,34.3.01,68.59.02,102.89.03q3.53,0,3.53,3.43c0,21.19,0,42.37.02,63.56,0,.96-.36,2.01.44,2.85.03.31.06.62.09.92-15.55.02-31.11.05-46.66.06-20.3,0-40.59-.02-60.89-.03.05-.14.07-.29.06-.44h0Z"/>
  </g>

  <g class="e letter">
    <path class="cls-4" d="m1394.95,95.85c-.88-.65-1.9-.52-2.89-.52-34.48,0-68.95,0-103.43,0,0-1.84,0-3.68,0-5.51,35.47,0,70.94.02,106.42.03,0,1.81,0,3.62,0,5.43-.03.19-.06.38-.09.57Z"/>
    <path class="cls-4" d="m1288.61,160.67c35.02,0,70.03.01,105.05.02.41,0,.83-.04,1.24-.07.03.18.07.36.1.54,0,1.67,0,3.34,0,5.01-.03.18-.06.35-.09.53-.87-.67-1.89-.52-2.88-.52-34.47,0-68.93,0-103.4,0,0-1.84-.01-3.68-.02-5.51Z"/>
    <path class="cls-5" d="m1394.95,95.85c-.01,21.59-.03,43.18-.04,64.77-.91.96-2.12.87-3.27.87-33.24.02-66.49.02-99.73,0-1.15,0-2.35.09-3.29-.82,0-21.78.01-43.55.02-65.33.94-.92,2.14-.82,3.29-.82,33.09-.02,66.18-.02,99.27,0,1.37,0,2.91-.25,3.76,1.32Z"/>
    <path class="cls-3" d="m1395.01,166.17c1.08.04,2.16.12,3.24.12,33.31,0,66.61,0,99.92,0q3.44,0,3.45,3.36c0,20.69-.03,41.39.05,62.08,0,2.19-.56,3.11-2.77,2.73-.16-.03-.33,0-.5,0-68.94.03-137.89.06-206.83.05-.98,0-2.14.56-2.96-.52,1.37-1.14,3.01-.78,4.56-.79,31.96-.02,63.93-.01,95.89-.02,5.53,0,5.14.26,5.14-5.17.01-18.94,0-37.89.01-56.83,0-1.41-.13-2.83.25-4.22.12-.32.31-.59.56-.82Z"/>
    <path class="cls-5" d="m1288.62,89.83c-.03-17.04-.06-34.08-.08-51.11,0-4.74.11-9.48-.05-14.21-.07-2.07.48-2.6,2.58-2.6,23.82.08,47.64.04,71.45.06,10.82,0,21.65.06,32.47.09.91.93.83,2.13.84,3.28.02,20.41.02,40.82,0,61.24,0,1.16.03,2.34-.76,3.33l-.03-.04c-.97.83-2.16.79-3.32.79-33.27.01-66.54.02-99.8,0-1.15,0-2.36.09-3.29-.82Z"/>
    <path class="cls-3" d="m1395.07,89.9c-.02-19.96-.04-39.93-.07-59.89,0-2.65-.01-5.3-.02-7.95.83-.03,1.66-.09,2.49-.09,33.73,0,67.46.02,101.19-.06,2.44,0,3.02.66,3.01,3.04-.1,20.7-.09,41.4,0,62.09,0,2.29-.6,2.92-2.91,2.91-34.56-.07-69.12-.05-103.69-.05Z"/>
    <path class="cls-5" d="m1394.92,166.7c.03,16.79.06,33.58.08,50.38,0,4.74-.11,9.48.05,14.21.07,2.16-.5,2.83-2.75,2.82-13.41-.11-26.82-.05-40.23-.06-21.16-.01-42.31-.03-63.47-.05.01-22.61.02-45.21.04-67.82.93-.92,2.14-.82,3.29-.82,33.09-.02,66.17-.02,99.26,0,1.36,0,2.91-.28,3.74,1.32Z"/>
    <path class="cls-3" d="m1395.04,95.28c1.08.03,2.16.08,3.24.08,33.46,0,66.92.03,100.39-.05,2.45,0,3.01.72,3,3.07-.09,19.69-.05,39.38-.05,59.07q0,3.57-3.49,3.57c-33.38,0-66.76,0-100.14,0-.99,0-1.99.08-2.98.12-.25-.23-.43-.51-.54-.83-.35-1.13-.26-2.3-.26-3.46,0-19.1,0-38.21,0-57.31,0-1.16-.08-2.33.26-3.47.12-.32.32-.58.58-.8Z"/>
  </g>

  <g class="c letter">
    <path class="cls-1" d="m1255.09,128.8c.17-1.51-.61-2.72-1.24-3.97-16.67-33.27-33.34-66.55-50-99.82-.48-.96-.85-1.97-1.27-2.96,14.63-.5,28.53,2.74,41.89,8.41,12.85,5.46,24.14,13.27,33.93,23.19,2.79,2.83,5.37,5.88,7.88,8.98,1.08,1.34,1.04,2.27.32,3.72-10.01,19.87-19.96,39.77-29.91,59.67-.44.88-1.09,1.69-1.1,2.74-.15.16-.32.17-.5.04Z"/>
    <path class="cls-6" d="m1255.09,128.8c.17-.01.33-.03.5-.04.43.7.92,1.37,1.28,2.1,9.87,19.67,19.7,39.35,29.6,59,.79,1.56.89,2.53-.36,4.09-10.73,13.35-23.72,23.8-39.31,30.95-9.62,4.41-19.67,7.37-30.21,8.68-4.69.58-9.37,1.18-14.11.84,8.93-17.89,17.85-35.79,26.8-53.68,8.2-16.4,16.43-32.8,24.64-49.2.44-.88.78-1.82,1.17-2.73Z"/>
    <path class="cls-2" d="m1202.48,234.41c-26.71.68-50.22-7.85-70.6-24.87-19.13-15.98-30.93-36.43-36-60.79-.35-1.67-.25-3.46-1.17-5-1.02-.88-.88-2.1-.89-3.23-.03-8.03-.03-16.05,0-24.08,0-1.14-.13-2.35.89-3.23,1.3-5.29,2.16-10.67,3.77-15.9,4.83-15.65,12.72-29.52,23.91-41.51,14.51-15.55,32.13-25.84,52.76-31.02,9-2.26,18.14-3.27,27.42-2.72.92.67,1.33,1.68,1.81,2.64,16.67,33.26,33.32,66.53,50,99.79.68,1.36,1.26,2.7.94,4.26.31,1.08-.29,1.94-.73,2.82-16.79,33.5-33.55,67.02-50.35,100.52-.45.89-.83,1.83-1.78,2.34Z"/>
  </g>

  
  
  
  
  
  
  
  
  
  
  
  
</svg>