<svg width="18.000000" height="18.000000" viewBox="0 0 18 18" fill="none" xmlns="http://www.w3.org/2000/svg" xmlns:xlink="http://www.w3.org/1999/xlink">
	<desc>
			Created with Pixso.
	</desc>
	<defs/>
	<path id="Vector" d="M2 18C1.44995 18 0.979248 17.8042 0.587402 17.4125C0.195801 17.0209 0 16.55 0 16L0 2C0 1.44995 0.195801 0.979126 0.587402 0.587524C0.979248 0.195801 1.44995 0 2 0L9 0L9 2L2 2L2 16L9 16L9 18L2 18ZM13 14L11.625 12.55L14.175 10L6 10L6 8L14.175 8L11.625 5.44995L13 4L18 9L13 14Z" fill="#000000" fill-opacity="1.000000" fill-rule="nonzero"/>
</svg>
