<svg width="24" height="24" viewBox="0 0 24 24" fill="none" xmlns="http://www.w3.org/2000/svg">
<path d="M5.7 18L8 14C6.9 14 5.95833 13.6083 5.175 12.825C4.39167 12.0417 4 11.1 4 10C4 8.9 4.39167 7.95833 5.175 7.175C5.95833 6.39167 6.9 6 8 6C9.1 6 10.0417 6.39167 10.825 7.175C11.6083 7.95833 12 8.9 12 10C12 10.3833 11.9542 10.7375 11.8625 11.0625C11.7708 11.3875 11.6333 11.7 11.45 12L8 18H5.7ZM14.7 18L17 14C15.9 14 14.9583 13.6083 14.175 12.825C13.3917 12.0417 13 11.1 13 10C13 8.9 13.3917 7.95833 14.175 7.175C14.9583 6.39167 15.9 6 17 6C18.1 6 19.0417 6.39167 19.825 7.175C20.6083 7.95833 21 8.9 21 10C21 10.3833 20.9542 10.7375 20.8625 11.0625C20.7708 11.3875 20.6333 11.7 20.45 12L17 18H14.7ZM8 11.5C8.41667 11.5 8.77083 11.3542 9.0625 11.0625C9.35417 10.7708 9.5 10.4167 9.5 10C9.5 9.58333 9.35417 9.22917 9.0625 8.9375C8.77083 8.64583 8.41667 8.5 8 8.5C7.58333 8.5 7.22917 8.64583 6.9375 8.9375C6.64583 9.22917 6.5 9.58333 6.5 10C6.5 10.4167 6.64583 10.7708 6.9375 11.0625C7.22917 11.3542 7.58333 11.5 8 11.5ZM17 11.5C17.4167 11.5 17.7708 11.3542 18.0625 11.0625C18.3542 10.7708 18.5 10.4167 18.5 10C18.5 9.58333 18.3542 9.22917 18.0625 8.9375C17.7708 8.64583 17.4167 8.5 17 8.5C16.5833 8.5 16.2292 8.64583 15.9375 8.9375C15.6458 9.22917 15.5 9.58333 15.5 10C15.5 10.4167 15.6458 10.7708 15.9375 11.0625C16.2292 11.3542 16.5833 11.5 17 11.5Z" fill="black"/>
</svg>
