<svg width="19.490967" height="20.000000" viewBox="0 0 19.491 20" fill="none" xmlns="http://www.w3.org/2000/svg" xmlns:xlink="http://www.w3.org/1999/xlink">
	<desc>
			Created with Pixso.
	</desc>
	<defs/>
	<path id="settings" d="M11.6204 20L7.87036 20C7.62036 20 7.40381 19.9166 7.22046 19.75C7.03711 19.5834 6.92871 19.375 6.89551 19.125L6.59546 16.8C6.37891 16.7167 6.17456 16.6167 5.98291 16.5C5.79126 16.3833 5.60376 16.2583 5.42041 16.125L3.24536 17.025C3.01221 17.1083 2.77881 17.1167 2.54541 17.05C2.31201 16.9833 2.12891 16.8417 1.99536 16.625L0.145508 13.4C0.012207 13.1833 -0.029541 12.95 0.0205078 12.7C0.0705566 12.45 0.195557 12.25 0.395508 12.1L2.27051 10.675C2.25391 10.5583 2.24536 10.4458 2.24536 10.3375L2.24536 9.66248C2.24536 9.5542 2.25391 9.44165 2.27051 9.32495L0.395508 7.90002C0.195557 7.75 0.0705566 7.55005 0.0205078 7.30005C-0.029541 7.05005 0.012207 6.81665 0.145508 6.59998L1.99536 3.375C2.11206 3.14172 2.29126 2.99585 2.53296 2.9375C2.77466 2.87915 3.01221 2.89172 3.24536 2.97498L5.42041 3.875C5.60376 3.7417 5.79541 3.6167 5.99536 3.5C6.19556 3.3833 6.39551 3.28333 6.59546 3.19995L6.89551 0.875C6.92871 0.625 7.03711 0.416626 7.22046 0.25C7.40381 0.083374 7.62036 0 7.87036 0L11.6204 0C11.8704 0 12.0872 0.083374 12.2705 0.25C12.4539 0.416626 12.562 0.625 12.5955 0.875L12.8955 3.19995C13.1121 3.28333 13.3164 3.3833 13.5081 3.5C13.6997 3.6167 13.8872 3.7417 14.0706 3.875L16.2454 2.97498C16.4788 2.89172 16.7122 2.8833 16.9456 2.94995C17.1787 3.01672 17.3621 3.15833 17.4954 3.375L19.3455 6.59998C19.4788 6.81665 19.5205 7.05005 19.4705 7.30005C19.4204 7.55005 19.2954 7.75 19.0955 7.90002L17.2205 9.32495C17.2371 9.44165 17.2454 9.5542 17.2454 9.66248L17.2454 10.3375C17.2454 10.4458 17.2288 10.5583 17.1956 10.675L19.0706 12.1C19.2705 12.25 19.3955 12.45 19.4456 12.7C19.4954 12.95 19.4539 13.1833 19.3206 13.4L17.4705 16.6C17.3372 16.8167 17.1497 16.9625 16.908 17.0375C16.6663 17.1125 16.4287 17.1083 16.1956 17.025L14.0706 16.125C13.8872 16.2583 13.6956 16.3833 13.4954 16.5C13.2954 16.6167 13.0955 16.7167 12.8955 16.8L12.5955 19.125C12.562 19.375 12.4539 19.5834 12.2705 19.75C12.0872 19.9166 11.8704 20 11.6204 20ZM9.79541 13.5C10.7622 13.5 11.5872 13.1583 12.2705 12.475C12.9539 11.7916 13.2954 10.9667 13.2954 10C13.2954 9.03333 12.9539 8.20837 12.2705 7.52502C11.5872 6.84167 10.7622 6.5 9.79541 6.5C8.81201 6.5 7.98291 6.84167 7.30786 7.52502C6.63306 8.20837 6.29541 9.03333 6.29541 10C6.29541 10.9667 6.63306 11.7916 7.30786 12.475C7.98291 13.1583 8.81201 13.5 9.79541 13.5ZM9.79541 11.5C9.37891 11.5 9.02466 11.3541 8.73291 11.0625C8.44141 10.7709 8.29541 10.4166 8.29541 10C8.29541 9.58337 8.44141 9.22913 8.73291 8.9375C9.02466 8.64587 9.37891 8.5 9.79541 8.5C10.2122 8.5 10.5664 8.64587 10.8579 8.9375C11.1497 9.22913 11.2954 9.58337 11.2954 10C11.2954 10.4166 11.1497 10.7709 10.8579 11.0625C10.5664 11.3541 10.2122 11.5 9.79541 11.5ZM8.74536 18L10.7205 18L11.0706 15.35C11.5872 15.2167 12.0664 15.0209 12.5081 14.7625C12.9497 14.5042 13.3538 14.1917 13.7205 13.825L16.1956 14.85L17.1704 13.15L15.0205 11.525C15.1038 11.2916 15.1621 11.0458 15.1956 10.7875C15.2288 10.5292 15.2454 10.2667 15.2454 10C15.2454 9.73328 15.2288 9.47083 15.1956 9.21252C15.1621 8.95422 15.1038 8.70837 15.0205 8.47498L17.1704 6.84998L16.1956 5.15002L13.7205 6.19995C13.3538 5.81665 12.9497 5.49585 12.5081 5.23755C12.0664 4.97913 11.5872 4.78333 11.0706 4.65002L10.7454 2L8.77051 2L8.42041 4.65002C7.90381 4.78333 7.42456 4.97913 6.98291 5.23755C6.54126 5.49585 6.13721 5.80835 5.77051 6.17505L3.29541 5.15002L2.32056 6.84998L4.47046 8.44995C4.38721 8.69995 4.32886 8.94995 4.29541 9.19995C4.26221 9.44995 4.24536 9.71667 4.24536 10C4.24536 10.2667 4.26221 10.525 4.29541 10.775C4.32886 11.025 4.38721 11.275 4.47046 11.525L2.32056 13.15L3.29541 14.85L5.77051 13.8C6.13721 14.1833 6.54126 14.5042 6.98291 14.7625C7.42456 15.0209 7.90381 15.2167 8.42041 15.35L8.74536 18Z" fill="#1C1B1F" fill-opacity="1.000000" fill-rule="nonzero"/>
</svg>
