<svg width="20" height="20" viewBox="0 0 20 20" fill="none" xmlns="http://www.w3.org/2000/svg">
<path d="M11.875 20H8.12497C7.87497 20 7.6583 19.9167 7.47497 19.75C7.29164 19.5833 7.1833 19.375 7.14997 19.125L6.84997 16.8C6.6333 16.7167 6.42914 16.6167 6.23747 16.5C6.0458 16.3833 5.8583 16.2583 5.67497 16.125L3.49997 17.025C3.26664 17.1083 3.0333 17.1167 2.79997 17.05C2.56664 16.9833 2.3833 16.8417 2.24997 16.625L0.399971 13.4C0.266638 13.1833 0.224971 12.95 0.274971 12.7C0.324971 12.45 0.449971 12.25 0.649971 12.1L2.52497 10.675C2.5083 10.5583 2.49997 10.4458 2.49997 10.3375V9.6625C2.49997 9.55417 2.5083 9.44167 2.52497 9.325L0.649971 7.9C0.449971 7.75 0.324971 7.55 0.274971 7.3C0.224971 7.05 0.266638 6.81667 0.399971 6.6L2.24997 3.375C2.36664 3.14167 2.5458 2.99583 2.78747 2.9375C3.02914 2.87917 3.26664 2.89167 3.49997 2.975L5.67497 3.875C5.8583 3.74167 6.04997 3.61667 6.24997 3.5C6.44997 3.38333 6.64997 3.28333 6.84997 3.2L7.14997 0.875C7.1833 0.625 7.29164 0.416667 7.47497 0.25C7.6583 0.0833333 7.87497 0 8.12497 0H11.875C12.125 0 12.3416 0.0833333 12.525 0.25C12.7083 0.416667 12.8166 0.625 12.85 0.875L13.15 3.2C13.3666 3.28333 13.5708 3.38333 13.7625 3.5C13.9541 3.61667 14.1416 3.74167 14.325 3.875L16.5 2.975C16.7333 2.89167 16.9666 2.88333 17.2 2.95C17.4333 3.01667 17.6166 3.15833 17.75 3.375L19.6 6.6C19.7333 6.81667 19.775 7.05 19.725 7.3C19.675 7.55 19.55 7.75 19.35 7.9L17.475 9.325C17.4916 9.44167 17.5 9.55417 17.5 9.6625V10.3375C17.5 10.4458 17.4833 10.5583 17.45 10.675L19.325 12.1C19.525 12.25 19.65 12.45 19.7 12.7C19.75 12.95 19.7083 13.1833 19.575 13.4L17.725 16.6C17.5916 16.8167 17.4041 16.9625 17.1625 17.0375C16.9208 17.1125 16.6833 17.1083 16.45 17.025L14.325 16.125C14.1416 16.2583 13.95 16.3833 13.75 16.5C13.55 16.6167 13.35 16.7167 13.15 16.8L12.85 19.125C12.8166 19.375 12.7083 19.5833 12.525 19.75C12.3416 19.9167 12.125 20 11.875 20ZM10.05 13.5C11.0166 13.5 11.8416 13.1583 12.525 12.475C13.2083 11.7917 13.55 10.9667 13.55 10C13.55 9.03333 13.2083 8.20833 12.525 7.525C11.8416 6.84167 11.0166 6.5 10.05 6.5C9.06664 6.5 8.23747 6.84167 7.56247 7.525C6.88747 8.20833 6.54997 9.03333 6.54997 10C6.54997 10.9667 6.88747 11.7917 7.56247 12.475C8.23747 13.1583 9.06664 13.5 10.05 13.5ZM10.05 11.5C9.6333 11.5 9.27914 11.3542 8.98747 11.0625C8.6958 10.7708 8.54997 10.4167 8.54997 10C8.54997 9.58333 8.6958 9.22917 8.98747 8.9375C9.27914 8.64583 9.6333 8.5 10.05 8.5C10.4666 8.5 10.8208 8.64583 11.1125 8.9375C11.4041 9.22917 11.55 9.58333 11.55 10C11.55 10.4167 11.4041 10.7708 11.1125 11.0625C10.8208 11.3542 10.4666 11.5 10.05 11.5ZM8.99997 18H10.975L11.325 15.35C11.8416 15.2167 12.3208 15.0208 12.7625 14.7625C13.2041 14.5042 13.6083 14.1917 13.975 13.825L16.45 14.85L17.425 13.15L15.275 11.525C15.3583 11.2917 15.4166 11.0458 15.45 10.7875C15.4833 10.5292 15.5 10.2667 15.5 10C15.5 9.73333 15.4833 9.47083 15.45 9.2125C15.4166 8.95417 15.3583 8.70833 15.275 8.475L17.425 6.85L16.45 5.15L13.975 6.2C13.6083 5.81667 13.2041 5.49583 12.7625 5.2375C12.3208 4.97917 11.8416 4.78333 11.325 4.65L11 2H9.02497L8.67497 4.65C8.15831 4.78333 7.67914 4.97917 7.23747 5.2375C6.7958 5.49583 6.39164 5.80833 6.02497 6.175L3.54997 5.15L2.57497 6.85L4.72497 8.45C4.64164 8.7 4.5833 8.95 4.54997 9.2C4.51664 9.45 4.49997 9.71667 4.49997 10C4.49997 10.2667 4.51664 10.525 4.54997 10.775C4.5833 11.025 4.64164 11.275 4.72497 11.525L2.57497 13.15L3.54997 14.85L6.02497 13.8C6.39164 14.1833 6.7958 14.5042 7.23747 14.7625C7.67914 15.0208 8.15831 15.2167 8.67497 15.35L8.99997 18Z" fill="#1C1B1F"/>
</svg>
